PathFileType  4	(X/Y/Z) C:\Users\antoi\Documents\MyRepositories\mobilecap\ResultsAnalysis
DataRate	CameraRate	NumFrames	NumMarkers	Units	OrigDataRate	OrigDataStartFrame	OrigNumFrames
100.0	100.0	5	51	mm	100.0	17	131
Frame#	Time	r_knee			r_shank_antsup			r_ankle			r_calc			r_5meta			r_toe			L_knee			L_shank_antsup			L_ankle			L_calc			L_5meta			L_toe			r_sh2			r_sh3			r_sh4			L_sh2			L_sh3			r_thigh1			r_thigh2			r_thigh3			r_thigh4			r_thigh5			L_thigh1			L_thigh2			L_thigh3			L_thigh4			r.ASIS			r.PSIS			L.ASIS			L.PSIS			C7			R_Shoulder			L_Shoulder			R_Sternum			L_Sternum			R_humerus			R_elbow_med			R_elbow_lat			R_forearm			R_wrist_radius			R_wrist_ulna			L_humerus			L_elbow_med			L_elbow_lat			L_forearm			L_wrist_radius			L_wrist_ulna			R_HJC			L_HJC			R_HJC_reg			L_HJC_reg			
		X1	Y1	Z1	X2	Y2	Z2	X3	Y3	Z3	X4	Y4	Z4	X5	Y5	Z5	X6	Y6	Z6	X7	Y7	Z7	X8	Y8	Z8	X9	Y9	Z9	X10	Y10	Z10	X11	Y11	Z11	X12	Y12	Z12	X13	Y13	Z13	X14	Y14	Z14	X15	Y15	Z15	X16	Y16	Z16	X17	Y17	Z17	X18	Y18	Z18	X19	Y19	Z19	X20	Y20	Z20	X21	Y21	Z21	X22	Y22	Z22	X23	Y23	Z23	X24	Y24	Z24	X25	Y25	Z25	X26	Y26	Z26	X27	Y27	Z27	X28	Y28	Z28	X29	Y29	Z29	X30	Y30	Z30	X31	Y31	Z31	X32	Y32	Z32	X33	Y33	Z33	X34	Y34	Z34	X35	Y35	Z35	X36	Y36	Z36	X37	Y37	Z37	X38	Y38	Z38	X39	Y39	Z39	X40	Y40	Z40	X41	Y41	Z41	X42	Y42	Z42	X43	Y43	Z43	X44	Y44	Z44	X45	Y45	Z45	X46	Y46	Z46	X47	Y47	Z47	X48	Y48	Z48	X49	Y49	Z49	X50	Y50	Z50	X51	Y51	Z51	

17	0.16000000	187.94649	489.54935	-79.62955	232.74263	450.87595	-92.75687	184.69730	88.24496	-125.75438	129.38870	57.22936	-179.84695	314.97837	36.17061	-89.13861	354.60105	62.36775	-144.12200	-39.63214	438.31592	-372.93400	-79.62634	358.31185	-384.27840	-368.32251	224.67322	-335.08089	-427.45840	259.60815	-281.20802	-366.97615	84.17331	-351.89075	-325.87537	61.92898	-301.20814	240.99180	335.06393	-112.26912	173.05034	433.97165	-48.02288	182.16458	318.62881	-52.80836	-122.85742	436.13309	-392.67198	-223.74951	367.98628	-383.88208	152.27391	790.93732	-132.33661	200.73246	691.88432	-130.77036	202.98694	668.27734	-66.45077	109.30287	770.38196	-30.68541	156.83947	667.48464	-32.39620	24.76790	753.37057	-382.44599	17.14805	611.22490	-391.95305	-88.20363	756.71226	-370.72978	-92.51612	621.23241	-356.45445	103.14561	931.13414	-100.47447	-100.34520	957.59278	-152.03087	75.69418	895.39794	-329.52723	-112.64037	949.74700	-249.49059	-46.98913	1424.99491	-218.29485	-0.36975	1381.21044	-53.00538	16.60830	1370.75438	-377.91673	62.80333	1323.01058	-196.79485	64.15853	1319.60305	-235.91463	-47.89817	1144.06409	26.44022	-125.33868	1070.70863	-10.79922	-99.22381	1065.77561	45.58333	-75.23451	926.14965	67.95746	-66.55830	818.70596	58.07537	-104.84575	826.87449	88.89347	29.37713	1140.03928	-455.20247	-0.76178	1027.66708	-405.60202	14.16575	1035.31500	-463.64954	137.04271	951.78677	-474.60625	225.77258	894.27499	-444.95986	199.66963	862.81964	-467.63483	23.18949	846.97858	-113.59091	-11.75529	830.32572	-300.30965	30.69355	849.88219	-117.20864	11.47315	837.60512	-269.59046	
18	0.17000000	194.70512	489.46921	-77.91838	238.36296	449.85215	-90.51145	184.89619	88.24903	-125.74278	129.30212	57.22836	-179.81453	314.95543	36.24142	-89.07293	354.52285	62.19538	-144.19463	-10.51064	439.47269	-372.40132	-51.58638	360.46139	-382.39754	-343.49402	235.58857	-333.98819	-400.02387	272.78244	-279.08204	-349.07048	94.95138	-352.88433	-308.83281	69.25895	-303.02748	245.37012	334.04680	-110.91122	178.83944	433.92977	-46.70878	185.87468	318.39876	-51.85052	-92.55399	439.00122	-391.70881	-195.10757	373.49696	-382.70912	164.85554	791.75633	-129.62029	211.56572	691.71729	-127.98698	212.55698	667.68685	-63.78375	120.23098	771.42379	-28.49008	166.02762	667.66026	-30.22664	41.54969	755.59205	-380.93933	38.41809	613.29458	-390.70372	-71.61518	755.21238	-368.19101	-71.25387	619.68846	-354.35353	115.95847	933.80903	-99.00967	-87.30183	960.45052	-150.87397	88.81282	897.63318	-328.11560	-99.61145	952.01409	-248.29206	-33.14980	1427.70694	-216.92002	14.11005	1383.70487	-51.85323	29.87259	1373.36937	-376.75701	76.77912	1325.52539	-195.81121	77.90404	1322.12757	-234.98810	-29.25991	1145.90069	27.97886	-105.68179	1071.02381	-8.47587	-78.55665	1066.37942	47.55069	-50.33046	927.44001	69.16376	-38.30138	820.40770	58.63611	-76.51938	827.25378	89.94537	40.63365	1142.34515	-453.58622	9.41393	1030.77291	-403.75351	24.30294	1037.94434	-461.71633	143.00590	948.98632	-473.99234	227.76131	886.71427	-444.84606	201.07621	856.91548	-468.13434	36.06422	849.70937	-112.03565	1.29745	832.60588	-298.74863	43.49851	853.09933	-115.35016	24.24975	839.89531	-267.70052	
19	0.18000000	200.46464	489.21019	-76.20848	243.25160	448.79386	-88.34721	185.03496	88.26041	-125.71051	129.17894	57.28679	-179.77347	314.94704	36.27466	-89.01949	354.47171	62.12272	-144.19465	18.23963	441.85735	-371.50184	-23.45472	363.65031	-380.32218	-317.71930	245.43198	-332.48670	-372.42771	283.40636	-276.31476	-327.52599	105.34149	-354.09817	-287.78952	76.98056	-305.21432	249.00471	333.04164	-109.42989	183.51656	433.73886	-45.44770	188.73483	318.08775	-50.94534	-62.46684	442.65543	-390.14254	-166.40534	379.40219	-381.23066	176.73776	792.30680	-127.10952	221.60598	691.29503	-125.34884	221.40022	666.92380	-61.26356	130.49293	772.38891	-26.44151	174.55376	667.76755	-28.17333	57.93937	758.40696	-379.58709	59.24937	616.15752	-389.39029	-55.26721	754.44190	-365.64661	-50.21049	619.07422	-351.94864	128.60543	936.32472	-97.79174	-74.46576	963.45911	-149.57190	101.53833	900.16789	-327.10804	-86.84795	954.53660	-246.90128	-19.44984	1430.58781	-215.62086	28.53286	1386.35858	-50.85197	42.78011	1376.15982	-375.75947	90.43857	1328.12819	-195.04289	91.41541	1324.80013	-234.26963	-10.63402	1148.05762	29.46348	-85.97092	1071.59888	-6.10549	-57.81797	1067.31175	49.53113	-25.16349	929.20596	70.31046	-9.52086	822.79333	59.14026	-47.69426	828.19445	90.86250	51.81958	1144.75012	-451.95926	19.56091	1033.99335	-401.75635	34.34761	1040.72099	-459.70007	148.40257	946.41675	-473.46394	229.07681	879.31817	-445.08001	201.48864	851.37233	-468.69195	48.75555	852.36926	-110.77903	13.87730	835.21013	-297.46161	55.99923	856.33975	-113.80113	36.61221	842.36031	-266.19145	
20	0.19000000	205.41327	488.87809	-74.56575	247.54682	447.81508	-86.31062	185.12226	88.28585	-125.65535	129.02581	57.41393	-179.72027	314.96358	36.26678	-88.96692	354.44330	62.09400	-144.14183	46.38649	445.44834	-370.24495	4.63666	367.86867	-378.16035	-291.09666	253.89952	-330.68432	-344.91021	291.33784	-273.24716	-302.43046	114.73508	-355.46721	-262.84425	84.51728	-307.54416	251.99588	332.12680	-107.88165	187.28042	433.54183	-44.26167	190.88606	317.82035	-50.09623	-32.85219	447.10534	-387.97507	-137.81585	385.55389	-379.40970	187.79711	792.66004	-124.95666	230.83784	690.75058	-123.02277	229.69348	666.19925	-59.02262	140.23649	773.39309	-24.59911	182.64193	667.97493	-26.30536	73.97169	761.80280	-378.34184	79.70938	619.80372	-388.05349	-39.05286	754.37880	-363.16690	-29.33044	619.37057	-349.35611	141.11688	938.76422	-96.76479	-61.84554	966.58876	-148.18382	113.98269	902.97693	-326.41967	-74.31191	957.29088	-245.39526	-5.86916	1433.60966	-214.39367	42.87543	1389.15551	-49.99298	55.37712	1379.07699	-374.91629	103.75849	1330.79313	-194.47016	104.67984	1327.59923	-233.73690	8.01188	1150.49827	30.86427	-66.19814	1072.41943	-3.68918	-37.03736	1068.58292	51.52503	0.23795	931.44554	71.36475	19.68945	825.86508	59.55931	-18.44221	829.70875	91.61176	62.90792	1147.20837	-450.37359	29.62571	1037.26837	-399.68349	44.26713	1043.61426	-457.65932	153.24534	944.13622	-473.03691	229.85184	872.27294	-445.65043	200.93867	846.29780	-469.27383	61.29118	855.00589	-109.76836	26.10760	838.09988	-296.41086	68.25673	859.58806	-112.53159	48.69885	844.99524	-265.03204	
21	0.20000000	209.71932	488.54862	-73.03986	251.32327	446.98388	-84.43094	185.16925	88.32485	-125.58009	128.85502	57.60480	-179.65765	315.00398	36.23090	-88.90649	354.42792	62.07513	-144.05671	73.81069	450.11480	-368.69487	32.59511	373.01836	-375.99701	-263.66277	260.73435	-328.74106	-317.47334	296.63998	-270.27385	-274.14819	122.60380	-356.85235	-234.41128	91.30171	-309.73308	254.46119	331.35404	-106.33435	190.35144	433.42772	-43.15780	192.51081	317.66944	-49.29106	-3.90686	452.24598	-385.27954	-109.44902	391.69424	-377.21968	198.02511	792.86325	-123.22431	239.27811	690.13733	-121.08627	237.57133	665.60768	-57.11624	149.61525	774.47884	-22.98630	190.43735	668.34288	-24.65286	89.69608	765.77010	-377.18208	99.90700	624.19908	-386.75709	-22.86973	754.93591	-360.84112	-8.53063	620.48371	-346.73906	153.50824	941.19686	-95.83620	-49.43959	969.79816	-146.77188	126.27996	906.03765	-325.93339	-61.96029	960.26361	-243.86533	7.59523	1436.75077	-213.24441	57.10443	1392.09153	-49.26304	67.73132	1382.07939	-374.20576	116.75906	1333.51904	-194.05952	117.70279	1330.51145	-233.35468	26.70776	1153.20349	32.15173	-46.35619	1073.48209	-1.24063	-16.22276	1070.20419	53.52285	25.84854	934.17348	72.29816	49.22035	829.61568	59.85972	11.19859	831.81924	92.15960	73.84064	1149.70264	-448.88226	39.54229	1040.57319	-397.61579	54.02893	1046.60926	-455.65304	157.56088	942.21451	-472.71826	230.10583	865.75022	-446.50116	199.52858	841.79249	-469.86392	73.68133	857.65651	-108.93958	38.12953	841.24167	-295.55228	80.33943	862.80011	-111.49074	60.64937	847.80388	-264.17072	
